<svg width="36" height="36" viewBox="0 0 36 36" fill="none" xmlns="http://www.w3.org/2000/svg">
<path d="M16.5995 28.2816C16.0472 28.2816 15.5995 27.8339 15.5995 27.2816V19.3895C15.5995 18.8372 15.1517 18.3895 14.5995 18.3895H13.96C13.4077 18.3895 12.96 17.9418 12.96 17.3895V15.8279C12.96 15.2756 13.4077 14.8279 13.96 14.8279H14.5995C15.1517 14.8279 15.5995 14.3802 15.5995 13.8279V11.7858C15.5995 9.39528 17.1586 7.20001 20.7513 7.20001C21.3868 7.20001 21.95 7.22639 22.3828 7.2561C22.8943 7.29122 23.2715 7.72793 23.2585 8.24051L23.2218 9.68019C23.2079 10.2261 22.7589 10.6601 22.2128 10.6572C21.8327 10.6552 21.3755 10.6536 20.9027 10.6536C19.6072 10.6536 19.3996 11.2452 19.3996 12.2272V13.8279C19.3996 14.3802 19.8473 14.8279 20.3996 14.8279H22.2509C22.8219 14.8279 23.277 15.3052 23.2498 15.8755L23.1754 17.4371C23.15 17.9703 22.7103 18.3895 22.1765 18.3895H20.3996C19.8473 18.3895 19.3996 18.8372 19.3996 19.3895V27.2816C19.3996 27.8339 18.9519 28.2816 18.3996 28.2816H16.5995Z" fill="white"/>
<rect x="0.5" y="0.5" width="35" height="35" rx="0.5" stroke="white"/>
</svg>
