<svg width="37" height="36" viewBox="0 0 37 36" fill="none" xmlns="http://www.w3.org/2000/svg">
<path fill-rule="evenodd" clip-rule="evenodd" d="M14.1933 7.26326C15.3142 7.21151 15.6716 7.20001 18.5271 7.20001C21.3826 7.20001 21.74 7.21247 22.86 7.26326C23.98 7.31404 24.7445 7.49324 25.4135 7.75293C26.114 8.01836 26.7495 8.43329 27.2751 8.96991C27.8102 9.49599 28.2231 10.1323 28.4868 10.8356C28.7468 11.5064 28.9245 12.273 28.9761 13.3942C29.0277 14.5201 29.0392 14.8785 29.0392 17.7408C29.0392 20.6041 29.0268 20.9625 28.9761 22.0865C28.9255 23.2077 28.7468 23.9743 28.4868 24.645C28.2231 25.3485 27.8095 25.9858 27.2751 26.5127C26.7495 27.0493 26.114 27.4633 25.4135 27.7277C24.7445 27.9884 23.98 28.1666 22.8619 28.2184C21.74 28.2701 21.3826 28.2816 18.5271 28.2816C15.6716 28.2816 15.3142 28.2692 14.1933 28.2184C13.0751 28.1676 12.3106 27.9884 11.6417 27.7277C10.9402 27.4632 10.3046 27.0486 9.77913 26.5127C9.24434 25.9863 8.83048 25.3492 8.56642 24.646C8.30744 23.9752 8.12969 23.2086 8.07809 22.0875C8.02648 20.9615 8.01501 20.6031 8.01501 17.7408C8.01501 14.8775 8.02744 14.5192 8.07809 13.3961C8.12874 12.273 8.30744 11.5064 8.56642 10.8356C8.83087 10.1323 9.24504 9.49533 9.78009 8.96895C10.3048 8.43281 10.9397 8.01783 11.6407 7.75293C12.3097 7.49324 13.0742 7.315 14.1923 7.26326H14.1933ZM22.7749 9.1606C21.6664 9.10981 21.3338 9.09927 18.5271 9.09927C15.7204 9.09927 15.3878 9.10981 14.2793 9.1606C13.2539 9.20756 12.6977 9.37908 12.3269 9.52378C11.8366 9.71543 11.4859 9.94254 11.118 10.3115C10.7692 10.6517 10.5008 11.0659 10.3325 11.5237C10.1881 11.8955 10.0171 12.4532 9.97026 13.4814C9.91961 14.5929 9.9091 14.9264 9.9091 17.7408C9.9091 20.5552 9.91961 20.8887 9.97026 22.0003C10.0171 23.0285 10.1881 23.5862 10.3325 23.958C10.5006 24.4151 10.7692 24.83 11.118 25.1702C11.4572 25.5199 11.871 25.7892 12.3269 25.9578C12.6977 26.1025 13.2539 26.2741 14.2793 26.321C15.3878 26.3718 15.7194 26.3824 18.5271 26.3824C21.3348 26.3824 21.6664 26.3718 22.7749 26.321C23.8003 26.2741 24.3565 26.1025 24.7273 25.9578C25.2176 25.7662 25.5683 25.5391 25.9362 25.1702C26.285 24.83 26.5536 24.4151 26.7217 23.958C26.866 23.5862 27.0371 23.0285 27.0839 22.0003C27.1346 20.8887 27.1451 20.5552 27.1451 17.7408C27.1451 14.9264 27.1346 14.5929 27.0839 13.4814C27.0371 12.4532 26.866 11.8955 26.7217 11.5237C26.5306 11.0321 26.3041 10.6804 25.9362 10.3115C25.5969 9.96177 25.1838 9.69263 24.7273 9.52378C24.3565 9.37908 23.8003 9.20756 22.7749 9.1606ZM17.1844 20.9903C17.9343 21.3032 18.7692 21.3455 19.5467 21.1098C20.3242 20.874 20.9959 20.375 21.4472 19.6978C21.8984 19.0206 22.1013 18.2074 22.021 17.3969C21.9407 16.5864 21.5823 15.8291 21.007 15.2541C20.6403 14.8866 20.1968 14.6052 19.7086 14.4302C19.2204 14.2551 18.6995 14.1908 18.1835 14.2419C17.6676 14.2929 17.1693 14.458 16.7246 14.7253C16.2799 14.9926 15.8998 15.3555 15.6117 15.7877C15.3236 16.22 15.1347 16.711 15.0586 17.2252C14.9825 17.7395 15.021 18.2643 15.1714 18.7618C15.3218 19.2594 15.5804 19.7173 15.9284 20.1026C16.2765 20.488 16.7055 20.7911 17.1844 20.9903ZM14.7064 13.9097C15.2082 13.4066 15.8038 13.0075 16.4594 12.7352C17.1149 12.463 17.8175 12.3228 18.5271 12.3228C19.2367 12.3228 19.9393 12.463 20.5948 12.7352C21.2504 13.0075 21.846 13.4066 22.3478 13.9097C22.8495 14.4128 23.2475 15.0101 23.519 15.6674C23.7906 16.3248 23.9303 17.0293 23.9303 17.7408C23.9303 18.4523 23.7906 19.1568 23.519 19.8142C23.2475 20.4715 22.8495 21.0688 22.3478 21.5719C21.3345 22.588 19.9601 23.1588 18.5271 23.1588C17.0941 23.1588 15.7197 22.588 14.7064 21.5719C13.6931 20.5558 13.1239 19.1778 13.1239 17.7408C13.1239 16.3039 13.6931 14.9258 14.7064 13.9097ZM25.1287 13.1297C25.253 13.0121 25.3526 12.8707 25.4214 12.7138C25.4902 12.5569 25.527 12.3878 25.5295 12.2164C25.532 12.045 25.5002 11.8749 25.4359 11.7161C25.3717 11.5573 25.2763 11.413 25.1554 11.2918C25.0345 11.1706 24.8907 11.075 24.7323 11.0105C24.5739 10.9461 24.4042 10.9142 24.2333 10.9167C24.0624 10.9192 23.8937 10.956 23.7373 11.0251C23.5808 11.0941 23.4398 11.1939 23.3225 11.3186C23.0944 11.5611 22.9695 11.8831 22.9744 12.2164C22.9792 12.5497 23.1134 12.868 23.3485 13.1037C23.5835 13.3394 23.9009 13.4739 24.2333 13.4788C24.5657 13.4836 24.8869 13.3584 25.1287 13.1297Z" fill="black"/>
<rect x="1.29999" y="0.5" width="35" height="35" rx="0.5" stroke="black"/>
</svg>
