<svg width="30" height="30" viewBox="0 0 30 30" fill="none" xmlns="http://www.w3.org/2000/svg">
<path fill-rule="evenodd" clip-rule="evenodd" d="M8.79212 0.08784C10.349 0.0159709 10.8454 0 14.8114 0C18.7773 0 19.2737 0.0173018 20.8293 0.08784C22.3848 0.158378 23.4467 0.407258 24.3757 0.767935C25.3486 1.1366 26.2313 1.71288 26.9613 2.45819C27.7046 3.18886 28.278 4.07258 28.6443 5.04947C29.0053 5.98111 29.2522 7.04583 29.3239 8.603C29.3955 10.1668 29.4115 10.6646 29.4115 14.64C29.4115 18.6168 29.3942 19.1145 29.3239 20.6757C29.2535 22.2328 29.0053 23.2976 28.6443 24.2292C28.278 25.2062 27.7036 26.0914 26.9613 26.8231C26.2313 27.5685 25.3486 28.1434 24.3757 28.5107C23.4467 28.8727 22.3848 29.1203 20.8319 29.1922C19.2737 29.264 18.7773 29.28 14.8114 29.28C10.8454 29.28 10.349 29.2627 8.79212 29.1922C7.2392 29.1216 6.17738 28.8727 5.24828 28.5107C4.27395 28.1434 3.39117 27.5675 2.66141 26.8231C1.91863 26.092 1.34383 25.2073 0.977085 24.2305C0.617391 23.2989 0.370517 22.2342 0.298843 20.677C0.22717 19.1132 0.211243 18.6154 0.211243 14.64C0.211243 10.6632 0.228497 10.1655 0.298843 8.60566C0.369189 7.04583 0.617391 5.98111 0.977085 5.04947C1.34437 4.07269 1.91961 3.18794 2.66273 2.45686C3.39147 1.71222 4.27335 1.13586 5.24695 0.767935C6.17605 0.407258 7.23788 0.159709 8.7908 0.08784H8.79212ZM20.7111 2.72304C19.1715 2.6525 18.7096 2.63786 14.8114 2.63786C10.9131 2.63786 10.4512 2.6525 8.91158 2.72304C7.48741 2.78825 6.71493 3.02649 6.19994 3.22745C5.51905 3.49364 5.03193 3.80906 4.52093 4.32146C4.03653 4.794 3.66374 5.36926 3.4299 6.00506C3.22948 6.52146 2.9919 7.29604 2.92686 8.72411C2.85652 10.268 2.84192 10.7311 2.84192 14.64C2.84192 18.5489 2.85652 19.012 2.92686 20.5559C2.9919 21.984 3.22948 22.7585 3.4299 23.2749C3.6635 23.9098 4.03647 24.4861 4.52093 24.9585C4.99212 25.4443 5.56683 25.8183 6.19994 26.0525C6.71493 26.2535 7.48741 26.4917 8.91158 26.557C10.4512 26.6275 10.9118 26.6421 14.8114 26.6421C18.7109 26.6421 19.1715 26.6275 20.7111 26.557C22.1353 26.4917 22.9078 26.2535 23.4228 26.0525C24.1037 25.7864 24.5908 25.4709 25.1018 24.9585C25.5862 24.4861 25.9592 23.9098 26.1928 23.2749C26.3932 22.7585 26.6308 21.984 26.6958 20.5559C26.7662 19.012 26.7808 18.5489 26.7808 14.64C26.7808 10.7311 26.7662 10.268 26.6958 8.72411C26.6308 7.29604 26.3932 6.52146 26.1928 6.00506C25.9273 5.32231 25.6128 4.83386 25.1018 4.32146C24.6305 3.83578 24.0568 3.46198 23.4228 3.22745C22.9078 3.02649 22.1353 2.78825 20.7111 2.72304ZM12.9465 19.1531C13.988 19.5878 15.1477 19.6465 16.2275 19.3191C17.3073 18.9917 18.2402 18.2986 18.867 17.358C19.4938 16.4175 19.7755 15.288 19.664 14.1623C19.5525 13.0367 19.0547 11.9848 18.2556 11.1863C17.7463 10.6759 17.1304 10.285 16.4523 10.0419C15.7742 9.79879 15.0508 9.70946 14.3342 9.78034C13.6175 9.85122 12.9255 10.0805 12.3078 10.4518C11.6902 10.8231 11.1623 11.327 10.7622 11.9274C10.3621 12.5278 10.0997 13.2097 9.994 13.9239C9.88825 14.6382 9.94175 15.3671 10.1507 16.0581C10.3596 16.7491 10.7187 17.3851 11.2021 17.9203C11.6855 18.4555 12.2813 18.8765 12.9465 19.1531ZM9.50488 9.31903C10.2017 8.62027 11.029 8.06598 11.9395 7.68781C12.85 7.30965 13.8258 7.11501 14.8114 7.11501C15.7969 7.11501 16.7727 7.30965 17.6832 7.68781C18.5937 8.06598 19.421 8.62027 20.1178 9.31903C20.8147 10.0178 21.3675 10.8473 21.7446 11.7603C22.1217 12.6733 22.3158 13.6518 22.3158 14.64C22.3158 15.6282 22.1217 16.6067 21.7446 17.5197C21.3675 18.4327 20.8147 19.2622 20.1178 19.961C18.7105 21.3722 16.8017 22.165 14.8114 22.165C12.821 22.165 10.9122 21.3722 9.50488 19.961C8.09751 18.5498 7.30686 16.6358 7.30686 14.64C7.30686 12.6442 8.09751 10.7302 9.50488 9.31903ZM23.9802 8.23567C24.1529 8.07232 24.2912 7.8759 24.3868 7.65802C24.4824 7.44014 24.5334 7.20523 24.5369 6.96722C24.5404 6.7292 24.4962 6.4929 24.4069 6.27232C24.3177 6.05174 24.1852 5.85136 24.0173 5.68303C23.8495 5.51471 23.6496 5.38187 23.4297 5.29238C23.2097 5.20289 22.974 5.15857 22.7366 5.16204C22.4993 5.16551 22.265 5.2167 22.0477 5.31259C21.8304 5.40847 21.6346 5.54709 21.4717 5.72025C21.1548 6.05701 20.9814 6.50431 20.9881 6.96722C20.9949 7.43012 21.1812 7.87217 21.5077 8.19952C21.8342 8.52688 22.275 8.71377 22.7366 8.72052C23.1983 8.72726 23.6444 8.55334 23.9802 8.23567Z" fill="white"/>
</svg>
