<svg width="14" height="15" viewBox="0 0 14 15" fill="none" xmlns="http://www.w3.org/2000/svg">
<path d="M12.6 6.6H11.325V2.4C11.325 1.07438 10.2506 0 8.925 0H4.275C2.94938 0 1.875 1.07438 1.875 2.4V6.6H0.6C0.268125 6.6 0 6.86813 0 7.2V14.4C0 14.7319 0.268125 15 0.6 15H12.6C12.9319 15 13.2 14.7319 13.2 14.4V7.2C13.2 6.86813 12.9319 6.6 12.6 6.6ZM3.225 2.4C3.225 1.82063 3.69563 1.35 4.275 1.35H8.925C9.50438 1.35 9.975 1.82063 9.975 2.4V6.6H3.225V2.4ZM11.85 13.65H1.35V7.95H11.85V13.65ZM6.075 11.0438V12.0375C6.075 12.12 6.1425 12.1875 6.225 12.1875H6.975C7.0575 12.1875 7.125 12.12 7.125 12.0375V11.0438C7.27978 10.9326 7.3953 10.7753 7.45495 10.5943C7.51459 10.4133 7.51528 10.2181 7.45691 10.0368C7.39854 9.85538 7.28413 9.6972 7.13014 9.58499C6.97616 9.47278 6.79053 9.41232 6.6 9.41232C6.40947 9.41232 6.22384 9.47278 6.06986 9.58499C5.91587 9.6972 5.80146 9.85538 5.74309 10.0368C5.68472 10.2181 5.68541 10.4133 5.74506 10.5943C5.8047 10.7753 5.92023 10.9326 6.075 11.0438Z" fill="#606060"/>
</svg>
