<svg width="98" height="77" viewBox="0 0 98 77" fill="none" xmlns="http://www.w3.org/2000/svg">
<path d="M50.7427 47.4932C51.7898 43.652 53.0498 40.2592 54.5225 37.3148C56.0993 34.3987 57.9313 31.7752 60.0186 29.4444C62.2098 27.1419 64.6988 24.9764 67.4856 22.9478C70.2723 20.9191 73.3851 18.9236 76.8239 16.9613L86.8779 25.5573C85.8198 26.1611 84.7712 26.9348 83.7322 27.8784C82.8537 28.6427 81.8525 29.6524 80.7286 30.9075C79.6047 32.1625 78.4903 33.5875 77.3854 35.1823C81.5254 37.2031 84.5839 40.3232 86.5609 44.5427C88.538 48.7621 88.918 53.1039 87.7012 57.568C86.9937 60.1634 85.8088 62.4614 84.1466 64.4619C82.6166 66.387 80.7936 67.9534 78.6774 69.161C76.5612 70.3686 74.218 71.1798 71.6478 71.5945C69.2099 71.9337 66.6915 71.749 64.0924 71.0406C61.5974 70.3604 59.3336 69.2414 57.3011 67.6836C55.4009 66.0503 53.8455 64.1764 52.6349 62.0619C51.4243 59.9474 50.5964 57.6584 50.1511 55.1949C49.838 52.6559 50.0352 50.0886 50.7427 47.4932ZM5.47603 33.4807C6.54218 29.9793 7.83533 26.8744 9.35546 24.1659C10.9039 21.3536 12.7076 18.834 14.7666 16.607C16.9579 14.3045 19.3666 12.2286 21.9928 10.3793C24.7512 8.45449 27.7978 6.49673 31.1327 4.506L41.1867 13.102C40.1286 13.7059 39.08 14.4796 38.041 15.4232C37.1625 16.1875 36.1613 17.1972 35.0374 18.4522C33.9135 19.7073 32.7991 21.1322 31.6942 22.727C35.8342 24.7478 38.8927 27.868 40.8697 32.0874C42.8468 36.3068 43.2268 40.6486 42.0099 45.1127C41.3024 47.7081 40.1176 50.0061 38.4554 52.0067C36.9254 53.9318 35.1023 55.4981 32.9862 56.7057C30.87 57.9134 28.5268 58.7245 25.9566 59.1392C23.5187 59.4784 21.0003 59.2938 18.4012 58.5853C15.9061 57.9052 13.6424 56.7862 11.6099 55.2284C9.70971 53.5951 8.16847 51.6693 6.98618 49.4509C5.80389 47.2326 5.01838 44.7879 4.62967 42.1167C4.37321 39.3701 4.65533 36.4914 5.47603 33.4807Z" fill="#3F78E1" fill-opacity="0.2"/>
</svg>
