<svg width="8" height="14" viewBox="0 0 8 14" fill="none" xmlns="http://www.w3.org/2000/svg">
<path d="M0.355291 0.368328C0.242666 0.484325 0.153312 0.622106 0.0923468 0.773786C0.0313812 0.925467 0 1.08807 0 1.25228C0 1.41649 0.0313812 1.57909 0.0923468 1.73077C0.153312 1.88245 0.242666 2.02023 0.355291 2.13623L5.06911 7.00109L0.355291 11.866C0.128132 12.1004 0.000514428 12.4184 0.000514428 12.7499C0.000514428 13.0815 0.128132 13.3994 0.355291 13.6339C0.582451 13.8683 0.890546 14 1.2118 14C1.53305 14 1.84114 13.8683 2.0683 13.6339L7.64471 7.87877C7.75734 7.76278 7.84669 7.625 7.90765 7.47332C7.96862 7.32164 8 7.15904 8 6.99482C8 6.83061 7.96862 6.66801 7.90765 6.51633C7.84669 6.36465 7.75734 6.22687 7.64471 6.11087L2.0683 0.35579C1.60664 -0.120666 0.829104 -0.120666 0.355291 0.368328Z" fill="#C4C4C4"/>
</svg>
