<svg width="20" height="21" viewBox="0 0 20 21" fill="none" xmlns="http://www.w3.org/2000/svg">
<path fill-rule="evenodd" clip-rule="evenodd" d="M8.20524 14.7031C4.80533 14.7031 2.05131 11.8811 2.05131 8.40252C2.05131 4.92397 4.80533 2.10195 8.20524 2.10195C11.6051 2.10195 14.3592 4.92397 14.3592 8.40252C14.3592 11.8811 11.6051 14.7031 8.20524 14.7031ZM13.0984 15.1478C11.7343 16.1909 10.0395 16.805 8.20524 16.805C3.67376 16.805 0 13.0406 0 8.40252C0 3.76446 3.67376 0 8.20524 0C12.7367 0 16.4105 3.75916 16.4105 8.40252C16.4105 10.4092 15.7233 12.2464 14.5813 13.6918L19.7174 19.23C20.1101 19.6482 20.0894 20.3153 19.6812 20.7124C19.273 21.1095 18.622 21.0937 18.2293 20.6754L13.0984 15.1478Z" fill="#707070"/>
</svg>
