<svg width="144" height="50" viewBox="0 0 144 50" fill="none" xmlns="http://www.w3.org/2000/svg">
<path d="M0 5C0 2.23858 2.23858 0 5 0H144V50H0V5Z" fill="url(#paint0_linear)"/>
<path d="M28.9607 21.2L25.6847 31H24.2147L21.5407 23.174L18.8667 31H17.3687L14.0927 21.2H15.5347L18.1807 29.166L20.9387 21.2H22.2267L24.9287 29.208L27.6307 21.2H28.9607ZM35.3444 23.51C36.2871 23.51 37.0337 23.7853 37.5844 24.336C38.1444 24.8773 38.4244 25.6753 38.4244 26.73V31H37.0804V26.884C37.0804 26.1653 36.9077 25.624 36.5624 25.26C36.2171 24.896 35.7224 24.714 35.0784 24.714C34.3504 24.714 33.7764 24.9287 33.3564 25.358C32.9364 25.778 32.7264 26.3847 32.7264 27.178V31H31.3824V20.612H32.7264V24.63C33.0064 24.2753 33.3704 24 33.8184 23.804C34.2757 23.608 34.7844 23.51 35.3444 23.51ZM44.3137 23.51C45.3404 23.51 46.1244 23.762 46.6657 24.266C47.2164 24.77 47.4917 25.5213 47.4917 26.52V31H46.2177V30.02C45.9937 30.3653 45.6717 30.6313 45.2517 30.818C44.841 30.9953 44.351 31.084 43.7817 31.084C42.951 31.084 42.2837 30.8833 41.7797 30.482C41.285 30.0807 41.0377 29.5533 41.0377 28.9C41.0377 28.2467 41.2757 27.724 41.7517 27.332C42.2277 26.9307 42.9837 26.73 44.0197 26.73H46.1477V26.464C46.1477 25.8853 45.9797 25.442 45.6437 25.134C45.3077 24.826 44.813 24.672 44.1597 24.672C43.721 24.672 43.2917 24.7467 42.8717 24.896C42.4517 25.036 42.097 25.2273 41.8077 25.47L41.2477 24.462C41.6304 24.154 42.0877 23.9207 42.6197 23.762C43.1517 23.594 43.7164 23.51 44.3137 23.51ZM44.0057 30.048C44.519 30.048 44.9624 29.936 45.3357 29.712C45.709 29.4787 45.9797 29.152 46.1477 28.732V27.696H44.0757C42.937 27.696 42.3677 28.0787 42.3677 28.844C42.3677 29.2173 42.5124 29.5113 42.8017 29.726C43.091 29.9407 43.4924 30.048 44.0057 30.048ZM54.8509 30.566C54.6549 30.734 54.4122 30.8647 54.1229 30.958C53.8335 31.042 53.5349 31.084 53.2269 31.084C52.4802 31.084 51.9015 30.8833 51.4909 30.482C51.0802 30.0807 50.8749 29.5067 50.8749 28.76V24.686H49.6149V23.58H50.8749V21.956H52.2189V23.58H54.3469V24.686H52.2189V28.704C52.2189 29.1053 52.3169 29.4133 52.5129 29.628C52.7182 29.8427 53.0075 29.95 53.3809 29.95C53.7915 29.95 54.1415 29.8333 54.4309 29.6L54.8509 30.566ZM59.3038 31.084C58.6971 31.084 58.1138 31.0047 57.5538 30.846C56.9938 30.678 56.5551 30.468 56.2378 30.216L56.7978 29.152C57.1244 29.3853 57.5211 29.572 57.9878 29.712C58.4544 29.852 58.9258 29.922 59.4018 29.922C60.5778 29.922 61.1658 29.586 61.1658 28.914C61.1658 28.69 61.0864 28.5127 60.9278 28.382C60.7691 28.2513 60.5684 28.158 60.3258 28.102C60.0924 28.0367 59.7564 27.9667 59.3178 27.892C58.7204 27.7987 58.2304 27.6913 57.8478 27.57C57.4744 27.4487 57.1524 27.2433 56.8818 26.954C56.6111 26.6647 56.4758 26.2587 56.4758 25.736C56.4758 25.064 56.7558 24.5273 57.3158 24.126C57.8758 23.7153 58.6271 23.51 59.5698 23.51C60.0644 23.51 60.5591 23.5707 61.0538 23.692C61.5484 23.8133 61.9544 23.9767 62.2718 24.182L61.6978 25.246C61.0911 24.854 60.3771 24.658 59.5558 24.658C58.9864 24.658 58.5524 24.7513 58.2538 24.938C57.9551 25.1247 57.8058 25.372 57.8058 25.68C57.8058 25.9227 57.8898 26.114 58.0578 26.254C58.2258 26.394 58.4311 26.4967 58.6738 26.562C58.9258 26.6273 59.2758 26.702 59.7238 26.786C60.3211 26.8887 60.8018 27.0007 61.1658 27.122C61.5391 27.234 61.8564 27.43 62.1178 27.71C62.3791 27.99 62.5098 28.382 62.5098 28.886C62.5098 29.558 62.2204 30.0947 61.6418 30.496C61.0724 30.888 60.2931 31.084 59.3038 31.084ZM71.3294 28.55H66.1214L65.0434 31H63.6014L68.0394 21.2H69.4254L73.8774 31H72.4074L71.3294 28.55ZM70.8394 27.43L68.7254 22.628L66.6114 27.43H70.8394ZM79.7773 23.51C80.496 23.51 81.14 23.6687 81.7093 23.986C82.2787 24.3033 82.722 24.7467 83.0393 25.316C83.366 25.8853 83.5293 26.5433 83.5293 27.29C83.5293 28.0367 83.366 28.6993 83.0393 29.278C82.722 29.8473 82.2787 30.2907 81.7093 30.608C81.14 30.9253 80.496 31.084 79.7773 31.084C79.2453 31.084 78.7553 30.9813 78.3073 30.776C77.8687 30.5707 77.4953 30.272 77.1873 29.88V33.716H75.8433V23.58H77.1313V24.756C77.43 24.3453 77.808 24.0373 78.2653 23.832C78.7227 23.6173 79.2267 23.51 79.7773 23.51ZM79.6653 29.908C80.1413 29.908 80.566 29.8007 80.9393 29.586C81.322 29.362 81.6207 29.054 81.8353 28.662C82.0593 28.2607 82.1713 27.8033 82.1713 27.29C82.1713 26.7767 82.0593 26.324 81.8353 25.932C81.6207 25.5307 81.322 25.2227 80.9393 25.008C80.566 24.7933 80.1413 24.686 79.6653 24.686C79.1987 24.686 78.774 24.798 78.3913 25.022C78.018 25.2367 77.7193 25.54 77.4953 25.932C77.2807 26.324 77.1733 26.7767 77.1733 27.29C77.1733 27.8033 77.2807 28.2607 77.4953 28.662C77.71 29.054 78.0087 29.362 78.3913 29.586C78.774 29.8007 79.1987 29.908 79.6653 29.908ZM90.0203 23.51C90.739 23.51 91.383 23.6687 91.9523 23.986C92.5216 24.3033 92.965 24.7467 93.2823 25.316C93.609 25.8853 93.7723 26.5433 93.7723 27.29C93.7723 28.0367 93.609 28.6993 93.2823 29.278C92.965 29.8473 92.5216 30.2907 91.9523 30.608C91.383 30.9253 90.739 31.084 90.0203 31.084C89.4883 31.084 88.9983 30.9813 88.5503 30.776C88.1116 30.5707 87.7383 30.272 87.4303 29.88V33.716H86.0863V23.58H87.3743V24.756C87.673 24.3453 88.051 24.0373 88.5083 23.832C88.9656 23.6173 89.4696 23.51 90.0203 23.51ZM89.9083 29.908C90.3843 29.908 90.809 29.8007 91.1823 29.586C91.565 29.362 91.8636 29.054 92.0783 28.662C92.3023 28.2607 92.4143 27.8033 92.4143 27.29C92.4143 26.7767 92.3023 26.324 92.0783 25.932C91.8636 25.5307 91.565 25.2227 91.1823 25.008C90.809 24.7933 90.3843 24.686 89.9083 24.686C89.4416 24.686 89.017 24.798 88.6343 25.022C88.261 25.2367 87.9623 25.54 87.7383 25.932C87.5236 26.324 87.4163 26.7767 87.4163 27.29C87.4163 27.8033 87.5236 28.2607 87.7383 28.662C87.953 29.054 88.2516 29.362 88.6343 29.586C89.017 29.8007 89.4416 29.908 89.9083 29.908Z" fill="white"/>
<path d="M128.72 29.9206C128.38 29.7376 126.687 28.8683 126.372 28.7507C126.057 28.6265 125.826 28.5677 125.598 28.9337C125.367 29.2964 124.712 30.1036 124.506 30.3487C124.307 30.5905 124.104 30.6199 123.764 30.4402C121.743 29.3814 120.417 28.5514 119.086 26.156C118.733 25.5188 119.438 25.5645 120.096 24.1887C120.208 23.9469 120.152 23.741 120.065 23.558C119.978 23.375 119.291 21.6038 119.004 20.8816C118.727 20.179 118.44 20.2771 118.231 20.264C118.031 20.2509 117.804 20.2509 117.573 20.2509C117.342 20.2509 116.971 20.3424 116.656 20.6986C116.341 21.0614 115.452 21.9339 115.452 23.7051C115.452 25.4763 116.684 27.1919 116.852 27.4337C117.027 27.6756 119.276 31.3094 122.729 32.8748C124.912 33.8617 125.767 33.9466 126.858 33.7767C127.523 33.6721 128.892 32.9074 129.176 32.0611C129.459 31.2179 129.459 30.4957 129.375 30.3454C129.291 30.1853 129.06 30.0938 128.72 29.9206Z" fill="white"/>
<path d="M134.859 21.3272C134.154 19.6976 133.144 18.2348 131.856 16.9785C130.568 15.7251 129.064 14.7389 127.386 14.0561C125.671 13.3551 123.85 13 121.972 13H121.91C120.02 13.0091 118.189 13.3733 116.468 14.0895C114.805 14.7814 113.315 15.7646 112.039 17.0179C110.763 18.2713 109.762 19.7279 109.07 21.3515C108.353 23.0327 107.991 24.8201 108 26.6591C108.01 28.7652 108.527 30.8561 109.497 32.7255V37.3382C109.497 38.109 110.14 38.7341 110.932 38.7341H115.675C117.597 39.6779 119.745 40.1817 121.91 40.1908H121.975C123.844 40.1908 125.656 39.8388 127.362 39.1499C129.03 38.4732 130.53 37.5021 131.815 36.2609C133.103 35.0197 134.117 33.5691 134.825 31.9516C135.561 30.2765 135.935 28.4951 135.944 26.6561C135.954 24.808 135.586 23.0145 134.859 21.3272ZM130.147 34.6191C127.96 36.7252 125.06 37.8844 121.972 37.8844H121.919C120.039 37.8753 118.17 37.4201 116.521 36.5643L116.259 36.4278H111.867V32.1549L111.727 31.9C110.848 30.2947 110.38 28.4769 110.37 26.647C110.358 23.6214 111.546 20.7809 113.726 18.6415C115.903 16.502 118.813 15.3185 121.922 15.3064H121.975C123.535 15.3064 125.047 15.6007 126.473 16.1834C127.864 16.7509 129.111 17.5672 130.184 18.6111C131.254 19.652 132.096 20.8689 132.679 22.2224C133.284 23.6244 133.587 25.1114 133.58 26.647C133.562 29.6695 132.342 32.5009 130.147 34.6191Z" fill="white"/>
<defs>
<linearGradient id="paint0_linear" x1="0" y1="0" x2="241" y2="83.5" gradientUnits="userSpaceOnUse">
<stop stop-color="#83A049"/>
<stop offset="1" stop-color="#A9E630"/>
</linearGradient>
</defs>
</svg>
